<mxfile host="app.diagrams.net" modified="2023-07-26T03:05:35.210Z" agent="Mozilla/5.0 (Windows NT 10.0; Win64; x64) AppleWebKit/537.36 (KHTML, like Gecko) Chrome/114.0.0.0 Safari/537.36" etag="6WzGx0K-YU4W1k5hfzxj" version="21.6.2" type="github">
  <diagram name="Page-1" id="9361dd3d-8414-5efd-6122-117bd74ce7a7">
    <mxGraphModel dx="1434" dy="764" grid="1" gridSize="10" guides="1" tooltips="1" connect="1" arrows="1" fold="1" page="0" pageScale="1.5" pageWidth="826" pageHeight="1169" background="none" math="0" shadow="0">
      <root>
        <mxCell id="0" />
        <mxCell id="1" parent="0" />
        <mxCell id="4" value="前台事件" style="shadow=1;fillColor=#A2C4C9;strokeColor=none" parent="1" vertex="1">
          <mxGeometry x="152.5" y="60" width="105" height="50" as="geometry" />
        </mxCell>
        <mxCell id="6" value="" style="fillColor=#CC4125;strokeColor=#660000" parent="1" vertex="1">
          <mxGeometry x="357.5" y="175" width="10" height="195" as="geometry" />
        </mxCell>
        <mxCell id="7" value="后台&#xa;导出备案材料逻辑" style="shadow=1;fillColor=#A2C4C9;strokeColor=none" parent="1" vertex="1">
          <mxGeometry x="310" y="60" width="105" height="50" as="geometry" />
        </mxCell>
        <mxCell id="8" value="" style="edgeStyle=none;endArrow=none;dashed=1" parent="1" source="7" target="6" edge="1">
          <mxGeometry x="272.3350694444445" y="165" width="100" height="100" as="geometry">
            <mxPoint x="362.2588734567901" y="110" as="sourcePoint" />
            <mxPoint x="362.5761959876544" y="165" as="targetPoint" />
          </mxGeometry>
        </mxCell>
        <mxCell id="9" value="导出-交互标志1" style="edgeStyle=none;verticalLabelPosition=top;verticalAlign=bottom" parent="1" edge="1">
          <mxGeometry x="220" y="92" width="100" height="100" as="geometry">
            <mxPoint x="220" y="190" as="sourcePoint" />
            <mxPoint x="350" y="190" as="targetPoint" />
          </mxGeometry>
        </mxCell>
        <mxCell id="11" value="" style="edgeStyle=none;verticalLabelPosition=top;verticalAlign=bottom;endArrow=none;startArrow=classic;dashed=1" parent="1" edge="1">
          <mxGeometry x="220" y="172.25887345679013" width="100" height="100" as="geometry">
            <mxPoint x="220" y="359.99887345679014" as="sourcePoint" />
            <mxPoint x="350" y="359.99887345679014" as="targetPoint" />
          </mxGeometry>
        </mxCell>
        <mxCell id="pBUZx8pV7DvgDz2EBKAD-104" value="返回关联关系列表" style="edgeLabel;html=1;align=center;verticalAlign=middle;resizable=0;points=[];" vertex="1" connectable="0" parent="11">
          <mxGeometry relative="1" as="geometry">
            <mxPoint x="5" y="-10" as="offset" />
          </mxGeometry>
        </mxCell>
        <mxCell id="15" value="后台&#xa;关联方检测逻辑" style="shadow=1;fillColor=#A2C4C9;strokeColor=none" parent="1" vertex="1">
          <mxGeometry x="470.0039506172839" y="59.99999999999997" width="105" height="50" as="geometry" />
        </mxCell>
        <mxCell id="33" value="" style="edgeStyle=elbowEdgeStyle;elbow=horizontal;endArrow=none;dashed=1;entryX=0.5;entryY=0;entryDx=0;entryDy=0;" parent="1" source="4" target="pBUZx8pV7DvgDz2EBKAD-119" edge="1">
          <mxGeometry x="230.00000000000003" y="310" width="100" height="100" as="geometry">
            <mxPoint x="230.00000000000003" y="410" as="sourcePoint" />
            <mxPoint x="330" y="310" as="targetPoint" />
          </mxGeometry>
        </mxCell>
        <mxCell id="52" value="" style="edgeStyle=none;endArrow=none;dashed=1" parent="1" source="6" edge="1">
          <mxGeometry x="376.5711805555559" y="339.6971450617284" width="100" height="100" as="geometry">
            <mxPoint x="466.7361111111112" y="284.6971450617284" as="sourcePoint" />
            <mxPoint x="363" y="640" as="targetPoint" />
          </mxGeometry>
        </mxCell>
        <mxCell id="pBUZx8pV7DvgDz2EBKAD-89" value="系统参数&#xa;是否校验关联方" style="shadow=1;fillColor=#A2C4C9;strokeColor=none" vertex="1" parent="1">
          <mxGeometry x="640.0039506172839" y="59.99999999999997" width="105" height="50" as="geometry" />
        </mxCell>
        <mxCell id="pBUZx8pV7DvgDz2EBKAD-91" value="" style="edgeStyle=none;endArrow=none;dashed=1" edge="1" parent="1" source="17">
          <mxGeometry x="376.5711805555559" y="339.6971450617284" width="100" height="100" as="geometry">
            <mxPoint x="522.78" y="110" as="sourcePoint" />
            <mxPoint x="522" y="640" as="targetPoint" />
          </mxGeometry>
        </mxCell>
        <mxCell id="pBUZx8pV7DvgDz2EBKAD-92" value="" style="edgeStyle=none;endArrow=none;dashed=1" edge="1" parent="1" source="pBUZx8pV7DvgDz2EBKAD-94">
          <mxGeometry x="376.5711805555559" y="339.6971450617284" width="100" height="100" as="geometry">
            <mxPoint x="692.5" y="110" as="sourcePoint" />
            <mxPoint x="692" y="640" as="targetPoint" />
          </mxGeometry>
        </mxCell>
        <mxCell id="pBUZx8pV7DvgDz2EBKAD-93" value="" style="edgeStyle=none;endArrow=none;dashed=1" edge="1" parent="1" target="17">
          <mxGeometry x="376.5711805555559" y="339.6971450617284" width="100" height="100" as="geometry">
            <mxPoint x="522.78" y="110" as="sourcePoint" />
            <mxPoint x="522" y="460" as="targetPoint" />
          </mxGeometry>
        </mxCell>
        <mxCell id="17" value="" style="fillColor=#CC4125;strokeColor=#660000" parent="1" vertex="1">
          <mxGeometry x="517.5" y="300" width="10" height="60" as="geometry" />
        </mxCell>
        <mxCell id="pBUZx8pV7DvgDz2EBKAD-95" value="" style="edgeStyle=none;endArrow=none;dashed=1" edge="1" parent="1" target="pBUZx8pV7DvgDz2EBKAD-94">
          <mxGeometry x="376.5711805555559" y="339.6971450617284" width="100" height="100" as="geometry">
            <mxPoint x="692.5" y="110" as="sourcePoint" />
            <mxPoint x="692" y="470" as="targetPoint" />
          </mxGeometry>
        </mxCell>
        <mxCell id="pBUZx8pV7DvgDz2EBKAD-94" value="" style="fillColor=#CC4125;strokeColor=#660000" vertex="1" parent="1">
          <mxGeometry x="687.5" y="200" width="10" height="80" as="geometry" />
        </mxCell>
        <mxCell id="pBUZx8pV7DvgDz2EBKAD-96" value="查询系统参数" style="edgeStyle=none;verticalLabelPosition=top;verticalAlign=bottom;entryX=-0.55;entryY=0.222;entryDx=0;entryDy=0;entryPerimeter=0;" edge="1" parent="1" target="pBUZx8pV7DvgDz2EBKAD-94">
          <mxGeometry width="100" height="100" as="geometry">
            <mxPoint x="367.5" y="219" as="sourcePoint" />
            <mxPoint x="680" y="219" as="targetPoint" />
            <mxPoint x="-54" y="1" as="offset" />
          </mxGeometry>
        </mxCell>
        <mxCell id="pBUZx8pV7DvgDz2EBKAD-98" value="" style="edgeStyle=none;verticalLabelPosition=top;verticalAlign=bottom;endArrow=none;startArrow=classic;dashed=1;" edge="1" parent="1">
          <mxGeometry x="220" y="172.25887345679013" width="100" height="100" as="geometry">
            <mxPoint x="370" y="250" as="sourcePoint" />
            <mxPoint x="680" y="249.99887345679014" as="targetPoint" />
          </mxGeometry>
        </mxCell>
        <mxCell id="pBUZx8pV7DvgDz2EBKAD-99" value="是" style="edgeLabel;html=1;align=center;verticalAlign=middle;resizable=0;points=[];" vertex="1" connectable="0" parent="pBUZx8pV7DvgDz2EBKAD-98">
          <mxGeometry relative="1" as="geometry">
            <mxPoint x="-52" y="-10" as="offset" />
          </mxGeometry>
        </mxCell>
        <mxCell id="pBUZx8pV7DvgDz2EBKAD-100" value="关联方检测" style="edgeStyle=none;verticalLabelPosition=top;verticalAlign=bottom" edge="1" parent="1">
          <mxGeometry width="100" height="100" as="geometry">
            <mxPoint x="380" y="310" as="sourcePoint" />
            <mxPoint x="510" y="310" as="targetPoint" />
            <mxPoint as="offset" />
          </mxGeometry>
        </mxCell>
        <mxCell id="pBUZx8pV7DvgDz2EBKAD-101" value="" style="edgeStyle=none;verticalLabelPosition=top;verticalAlign=bottom;endArrow=none;startArrow=classic;dashed=1" edge="1" parent="1">
          <mxGeometry x="220" y="172.25887345679013" width="100" height="100" as="geometry">
            <mxPoint x="380" y="349.99887345679014" as="sourcePoint" />
            <mxPoint x="510" y="349.99887345679014" as="targetPoint" />
          </mxGeometry>
        </mxCell>
        <mxCell id="pBUZx8pV7DvgDz2EBKAD-102" value="部分产品存在关联" style="edgeLabel;html=1;align=center;verticalAlign=middle;resizable=0;points=[];" vertex="1" connectable="0" parent="pBUZx8pV7DvgDz2EBKAD-101">
          <mxGeometry relative="1" as="geometry">
            <mxPoint x="5" y="-10" as="offset" />
          </mxGeometry>
        </mxCell>
        <mxCell id="pBUZx8pV7DvgDz2EBKAD-103" value="" style="fillColor=#CC4125;strokeColor=#660000" vertex="1" parent="1">
          <mxGeometry x="200" y="350" width="10" height="110" as="geometry" />
        </mxCell>
        <mxCell id="pBUZx8pV7DvgDz2EBKAD-105" value="前台&#xa;导出关联关系逻辑" style="shadow=1;fillColor=#A2C4C9;strokeColor=none" vertex="1" parent="1">
          <mxGeometry x="810.0039506172839" y="59.99999999999997" width="105" height="50" as="geometry" />
        </mxCell>
        <mxCell id="pBUZx8pV7DvgDz2EBKAD-106" value="" style="edgeStyle=none;endArrow=none;dashed=1;" edge="1" parent="1">
          <mxGeometry x="376.5711805555559" y="339.6971450617284" width="100" height="100" as="geometry">
            <mxPoint x="862" y="110" as="sourcePoint" />
            <mxPoint x="862" y="640" as="targetPoint" />
          </mxGeometry>
        </mxCell>
        <mxCell id="pBUZx8pV7DvgDz2EBKAD-107" value="" style="fillColor=#CC4125;strokeColor=#660000" vertex="1" parent="1">
          <mxGeometry x="857.5" y="390" width="10" height="80" as="geometry" />
        </mxCell>
        <mxCell id="pBUZx8pV7DvgDz2EBKAD-108" value="导出-导出关联关系" style="edgeStyle=none;verticalLabelPosition=top;verticalAlign=bottom" edge="1" parent="1">
          <mxGeometry width="100" height="100" as="geometry">
            <mxPoint x="220" y="404.5" as="sourcePoint" />
            <mxPoint x="850" y="405" as="targetPoint" />
            <mxPoint x="75" y="-5" as="offset" />
          </mxGeometry>
        </mxCell>
        <mxCell id="pBUZx8pV7DvgDz2EBKAD-109" value="" style="fillColor=#CC4125;strokeColor=#660000" vertex="1" parent="1">
          <mxGeometry x="357.5" y="430" width="10" height="190" as="geometry" />
        </mxCell>
        <mxCell id="pBUZx8pV7DvgDz2EBKAD-110" value="确认-交互标志0" style="edgeStyle=none;verticalLabelPosition=top;verticalAlign=bottom" edge="1" parent="1">
          <mxGeometry x="220" y="92" width="100" height="100" as="geometry">
            <mxPoint x="220" y="450" as="sourcePoint" />
            <mxPoint x="350" y="450" as="targetPoint" />
          </mxGeometry>
        </mxCell>
        <mxCell id="pBUZx8pV7DvgDz2EBKAD-111" value="" style="fillColor=#CC4125;strokeColor=#660000" vertex="1" parent="1">
          <mxGeometry x="687.5" y="460" width="10" height="80" as="geometry" />
        </mxCell>
        <mxCell id="pBUZx8pV7DvgDz2EBKAD-112" value="查询系统参数" style="edgeStyle=none;verticalLabelPosition=top;verticalAlign=bottom;entryX=-0.55;entryY=0.222;entryDx=0;entryDy=0;entryPerimeter=0;" edge="1" parent="1">
          <mxGeometry width="100" height="100" as="geometry">
            <mxPoint x="367.5" y="471" as="sourcePoint" />
            <mxPoint x="682" y="470" as="targetPoint" />
            <mxPoint x="-54" y="1" as="offset" />
          </mxGeometry>
        </mxCell>
        <mxCell id="pBUZx8pV7DvgDz2EBKAD-113" value="" style="edgeStyle=none;verticalLabelPosition=top;verticalAlign=bottom;endArrow=none;startArrow=classic;dashed=1;" edge="1" parent="1">
          <mxGeometry x="220" y="172.25887345679013" width="100" height="100" as="geometry">
            <mxPoint x="367.5" y="509" as="sourcePoint" />
            <mxPoint x="677.5" y="508.99887345679014" as="targetPoint" />
          </mxGeometry>
        </mxCell>
        <mxCell id="pBUZx8pV7DvgDz2EBKAD-114" value="是" style="edgeLabel;html=1;align=center;verticalAlign=middle;resizable=0;points=[];" vertex="1" connectable="0" parent="pBUZx8pV7DvgDz2EBKAD-113">
          <mxGeometry relative="1" as="geometry">
            <mxPoint x="-52" y="-10" as="offset" />
          </mxGeometry>
        </mxCell>
        <mxCell id="pBUZx8pV7DvgDz2EBKAD-115" value="" style="fillColor=#CC4125;strokeColor=#660000" vertex="1" parent="1">
          <mxGeometry x="517.5" y="540" width="10" height="60" as="geometry" />
        </mxCell>
        <mxCell id="pBUZx8pV7DvgDz2EBKAD-116" value="关联方检测" style="edgeStyle=none;verticalLabelPosition=top;verticalAlign=bottom" edge="1" parent="1">
          <mxGeometry width="100" height="100" as="geometry">
            <mxPoint x="380" y="550" as="sourcePoint" />
            <mxPoint x="510" y="550" as="targetPoint" />
            <mxPoint as="offset" />
          </mxGeometry>
        </mxCell>
        <mxCell id="pBUZx8pV7DvgDz2EBKAD-117" value="" style="edgeStyle=none;verticalLabelPosition=top;verticalAlign=bottom;endArrow=none;startArrow=classic;dashed=1" edge="1" parent="1">
          <mxGeometry x="220" y="172.25887345679013" width="100" height="100" as="geometry">
            <mxPoint x="380" y="589.9988734567901" as="sourcePoint" />
            <mxPoint x="510" y="589.9988734567901" as="targetPoint" />
          </mxGeometry>
        </mxCell>
        <mxCell id="pBUZx8pV7DvgDz2EBKAD-118" value="部分产品存在关联" style="edgeLabel;html=1;align=center;verticalAlign=middle;resizable=0;points=[];" vertex="1" connectable="0" parent="pBUZx8pV7DvgDz2EBKAD-117">
          <mxGeometry relative="1" as="geometry">
            <mxPoint x="5" y="-10" as="offset" />
          </mxGeometry>
        </mxCell>
        <mxCell id="pBUZx8pV7DvgDz2EBKAD-119" value="" style="fillColor=#CC4125;strokeColor=#660000" vertex="1" parent="1">
          <mxGeometry x="200" y="570" width="10" height="70" as="geometry" />
        </mxCell>
        <mxCell id="pBUZx8pV7DvgDz2EBKAD-120" value="" style="edgeStyle=none;verticalLabelPosition=top;verticalAlign=bottom;endArrow=none;startArrow=classic;dashed=1" edge="1" parent="1">
          <mxGeometry x="220" y="172.25887345679013" width="100" height="100" as="geometry">
            <mxPoint x="220" y="609.9988734567901" as="sourcePoint" />
            <mxPoint x="350" y="609.9988734567901" as="targetPoint" />
          </mxGeometry>
        </mxCell>
        <mxCell id="pBUZx8pV7DvgDz2EBKAD-121" value="导出没有关联的材料" style="edgeLabel;html=1;align=center;verticalAlign=middle;resizable=0;points=[];" vertex="1" connectable="0" parent="pBUZx8pV7DvgDz2EBKAD-120">
          <mxGeometry relative="1" as="geometry">
            <mxPoint x="5" y="-10" as="offset" />
          </mxGeometry>
        </mxCell>
        <mxCell id="2" value="" style="fillColor=#CC4125;strokeColor=#660000" parent="1" vertex="1">
          <mxGeometry x="200" y="150" width="10" height="70" as="geometry" />
        </mxCell>
      </root>
    </mxGraphModel>
  </diagram>
</mxfile>
